<?xml version="1.0" encoding="UTF-8"?>
<svg width="400px" height="230px" viewBox="0 0 400 230" version="1.1" xmlns="http://www.w3.org/2000/svg" xmlns:xlink="http://www.w3.org/1999/xlink" jetway-hooks="{}">
    <title>product_hero_groups</title>
    <g jetway-hook-id="A2C56D04-4B98-4C20-9EF8-32471F18BF41" id="product_hero_groups" stroke="none" stroke-width="1" fill="none" fill-rule="evenodd">
        <g jetway-hook-id="86D8F690-6E7B-48A6-A028-A9273F13328D" id="monitor" transform="translate(2.068765, 4.104689)" fill-rule="nonzero" stroke="#3C4043">
            <path d="M322.224237,182.774252 L2.7077667,182.774252 C1.21849501,182.774252 0,181.555757 0,180.066485 L0,2.7077667 C0,1.21849501 1.21849501,0 2.7077667,0 L322.224237,0 C323.713509,0 324.932004,1.21849501 324.932004,2.7077667 L324.932004,180.066485 C324.932004,181.555757 323.727047,182.774252 322.224237,182.774252 Z" jetway-hook-id="B01BAED7-D522-48E2-99F6-7D52AEC86F06" id="Path" fill="#FFFFFF"></path>
            <path d="M202.283711,224 L121.28087,224 C131.123602,216.837957 137.757631,206.088123 139.7343,194.079178 L141.589121,182.774252 L181.975461,182.774252 L183.830281,194.079178 C185.806951,206.088123 192.440979,216.837957 202.283711,224 Z" jetway-hook-id="84E43978-434F-4A1D-A929-BABFC2B1F92C" id="Path" fill="#E8EAED"></path>
            <polygon jetway-hook-id="1E5FC412-3206-4704-A9DC-25085DC3B8D3" id="Path" fill="#3C4043" stroke-linecap="round" stroke-linejoin="round" transform="translate(161.486310, 187.275914) scale(-1, 1) translate(-161.486310, -187.275914) " points="182.451194 191.777576 140.521426 183.248111 140.602659 182.774252 180.975461 182.774252 182.437655 191.682804"></polygon>
        </g>
        <g jetway-hook-id="62073E70-C722-4E0C-98FF-E5545421E781" id="screen" transform="translate(27.036170, 22.472399)">
            <rect jetway-hook-id="0EA0E251-A109-4970-A49A-1A13A1009A87" id="Rectangle" fill="#E8EAED" x="64.3659556" y="38.0625" width="207.625" height="105.98863" rx="3.5"></rect>
            <g jetway-hook-id="D7F29F05-FAED-4B87-9078-A9237AF4E9F6" id="Group-7" transform="translate(115.574813, 60.828728)" stroke="#3C4043" stroke-linecap="round">
                <line x1="-1.36164326e-16" y1="0.740985776" x2="119.908152" y2="0.740985776" jetway-hook-id="17DB9007-3064-4AE7-9A71-0649655EBE53" id="Line-2"></line>
                <line x1="-1.36164326e-16" y1="31.6937965" x2="119.908152" y2="31.6937965" jetway-hook-id="7A33ED88-DD10-4C2B-B7B0-6A0F0911F79F" id="Line-2"></line>
                <line x1="-1.36164326e-16" y1="62.6466072" x2="119.908152" y2="62.6466072" jetway-hook-id="20649AC0-4ED7-4746-998E-EB7F66ED20A2" id="Line-2"></line>
            </g>
            <polygon jetway-hook-id="9F0CD7D6-A969-4796-AB84-B002A74D140D" id="Path-4" stroke="#3C4043" stroke-linecap="round" stroke-linejoin="round" points="248.125259 58.7014348 250.253939 53.7345146 252.38262 58.7014348 257.34954 58.7014348 253.09218 62.249235 254.5113 67.2161553 250.253939 64.3779152 245.996579 67.2161553 246.706139 62.249235 243.158339 59.4109949"></polygon>
            <polygon jetway-hook-id="256E6B58-6AB8-44D4-875F-EC76EE1D939C" id="Path-4" stroke="#3C4043" fill="#FBBC04" stroke-linecap="round" stroke-linejoin="round" points="248.125259 90.0269633 250.253939 85.060043 252.38262 90.0269633 257.34954 90.0269633 253.09218 93.5747635 254.5113 98.5416838 250.253939 95.7034436 245.996579 98.5416838 246.706139 93.5747635 243.158339 90.7365233"></polygon>
            <polygon jetway-hook-id="56FAE3AA-523A-4052-86B0-6107BD3067C2" id="Path-4" stroke="#3C4043" fill="#FBBC04" stroke-linecap="round" stroke-linejoin="round" points="248.125259 120.352492 250.253939 115.385571 252.38262 120.352492 257.34954 120.352492 253.09218 123.900292 254.5113 128.867212 250.253939 126.028972 245.996579 128.867212 246.706139 123.900292 243.158339 121.062052"></polygon>
            <g jetway-hook-id="A459DC05-9D75-4981-867B-29B8E627FD8C" id="Group-18" transform="translate(77.761255, 109.774830)">
                <g jetway-hook-id="0DAD020B-126B-4EDB-B42B-899C8DEF81EF" id="Group-22" fill="#FCC934" stroke="#3C4043">
                    <ellipse jetway-hook-id="6A7C8E4F-DBD4-4B45-BC0B-67E1F3EB3093" id="Oval" cx="13.2715842" cy="13.2865702" rx="13.2715842" ry="13.2865702"></ellipse>
                </g>
                <g jetway-hook-id="E5379804-0C67-4F6D-8B8C-EA6656A4F508" id="Group-17" transform="translate(6.820009, 3.720005)">
                    <path d="M5.44144175,19.5300253 C5.44144175,19.5300253 6.70980463,16.9124299 7.33155114,14.3945525 C7.33155114,14.3945525 9.99262622,15.6908854 11.8827356,15.0676485 C11.8827356,15.0676485 12.703441,13.9208924 12.9770095,10.3061179 C13.1262286,8.48626591 12.87753,5.7190937 12.3801328,4.02388911 C11.8329959,2.1043192 9.96775636,0.807986275 6.90876351,1.28164638 C2.75549681,1.90488337 0.840517552,4.19839546 1.61148323,8.16218268 C2.50679821,12.8738543 2.03427086,12.8738543 0.591818947,15.9152508 C0.616688808,15.8903213 1.63635309,19.1810125 5.44144175,19.5300253" jetway-hook-id="64990DAF-B7AF-48D8-AE4C-65ACA02DEAEE" id="Fill-1" fill="#933222"></path>
                    <path d="M5.44144175,19.5300253 C5.44144175,19.5300253 6.70980463,16.9124299 7.33155114,14.3945525 C7.33155114,14.3945525 9.99262622,15.6908854 11.8827356,15.0676485 C11.8827356,15.0676485 12.703441,13.9208924 12.9770095,10.3061179 C13.1262286,8.48626591 12.87753,5.7190937 12.3801328,4.02388911 C11.8329959,2.1043192 9.96775636,0.807986275 6.90876351,1.28164638 C2.75549681,1.90488337 0.840517552,4.19839546 1.61148323,8.16218268 C2.50679821,12.8738543 2.03427086,12.8738543 0.591818947,15.9152508 C0.616688808,15.8903213 1.63635309,19.1810125 5.44144175,19.5300253 Z" jetway-hook-id="6C582886-4D5A-4663-9F29-1243A3E3AC20" id="Stroke-3" stroke="#3D4043" stroke-linecap="round" stroke-linejoin="round"></path>
                    <path d="M6.23192482,15.3872926 C6.23192482,15.3872926 4.92707099,14.7718009 4.73455158,12.4281979 C4.73455158,12.4281979 5.37628297,13.8248906 6.51000842,14.3456913 C6.51000842,14.3456913 6.44583528,14.6060916 6.40305319,14.8191464 C6.317489,15.055874 6.23192482,15.3872926 6.23192482,15.3872926" jetway-hook-id="781424FF-CCDB-4573-8B8C-9C7E2703355D" id="Fill-5" fill="#3C4043"></path>
                    <path d="M6.23192482,15.3872926 C6.23192482,15.3872926 4.92707099,14.7718009 4.73455158,12.4281979 C4.73455158,12.4281979 5.37628297,13.8248906 6.51000842,14.3456913 C6.51000842,14.3456913 6.44583528,14.6060916 6.40305319,14.8191464 C6.317489,15.055874 6.23192482,15.3872926 6.23192482,15.3872926 Z" jetway-hook-id="DE9EC62E-9319-482D-A66A-FAEFC9BB0C3A" id="Stroke-7" stroke="#3C4043" stroke-linecap="round" stroke-linejoin="round"></path>
                    <path d="M1.77715435,11.8363789 C1.77715435,11.8363789 3.02434914,10.4302992 3.2737881,9.74004193 C3.47333927,9.25430531 4.27154394,8.84551959 4.69559017,8.69212907 C4.84525354,8.64074325 4.99491692,8.69212907 5.04480471,8.84551959 C5.24435588,9.25430531 5.59357042,10.046823 5.693346,10.353604 C5.693346,10.353604 5.99267275,8.00161612 6.11739223,7.69509074 C6.24211171,7.38830971 6.890653,7.23466355 7.14009196,6.16118561 C7.38953092,5.08745202 7.43941871,4.2438042 7.43941871,4.2438042 C7.43941871,4.2438042 7.88840884,4.29467872 9.01088415,4.19267402 C10.1084156,4.0648486 11.7297688,3.91120243 12.1288711,4.42250414 C12.1288711,4.42250414 12.4281979,3.88563735 12.4281979,2.99085935 C12.4281979,1.99382102 11.1762638,0 7.65917444,0 C4.14208512,0 -0.567322425,0.255650855 0.0560255335,6.77474766 C0.300725152,9.33125621 1.35310812,9.07560536 1.77715435,11.8363789" jetway-hook-id="B20E2554-45A3-4D9F-89EB-BE722919D54E" id="Fill-9" fill="#3C4043"></path>
                    <path d="M1.77715435,11.8363789 C1.77715435,11.8363789 3.02434914,10.4302992 3.2737881,9.74004193 C3.47333927,9.25430531 4.27154394,8.84551959 4.69559017,8.69212907 C4.84525354,8.64074325 4.99491692,8.69212907 5.04480471,8.84551959 C5.24435588,9.25430531 5.59357042,10.046823 5.693346,10.353604 C5.693346,10.353604 5.99267275,8.00161612 6.11739223,7.69509074 C6.24211171,7.38830971 6.890653,7.23466355 7.14009196,6.16118561 C7.38953092,5.08745202 7.43941871,4.2438042 7.43941871,4.2438042 C7.43941871,4.2438042 7.88840884,4.29467872 9.01088415,4.19267402 C10.1084156,4.0648486 11.7297688,3.91120243 12.1288711,4.42250414 C12.1288711,4.42250414 12.4281979,3.88563735 12.4281979,2.99085935 C12.4281979,1.99382102 11.1762638,0 7.65917444,0 C4.14208512,0 -0.567322425,0.255650855 0.0560255335,6.77474766 C0.300725152,9.33125621 1.35310812,9.07560536 1.77715435,11.8363789 Z" jetway-hook-id="BCDED53F-B18B-46DE-AB8A-F47D93A9A3D2" id="Stroke-11" stroke="#3C4043" stroke-linecap="round" stroke-linejoin="round"></path>
                    <g jetway-hook-id="65AAAFAC-A48C-4562-991D-8894AB30A54C" id="Group-16" transform="translate(2.959095, 8.285465)">
                        <path d="M1.77545684,0.41875737 C1.77545684,0.41875737 1.39062143,-0.0687033216 0.851763075,0.00823583831 C0.312904722,0.0851749982 -0.0464081583,0.624018135 0.00485884318,1.21424372 C0.0306033114,1.8044693 0.595206133,2.62551236 1.23659849,2.95909474" jetway-hook-id="FD92AB1C-C4B7-4558-A376-C2FA6F0600D9" id="Fill-13" fill="#933222"></path>
                        <path d="M1.77545684,0.41875737 C1.77545684,0.41875737 1.39062143,-0.0687033216 0.851763075,0.00823583831 C0.312904722,0.0851749982 -0.0464081583,0.624018135 0.00485884318,1.21424372 C0.0306033114,1.8044693 0.595206133,2.62551236 1.23659849,2.95909474" jetway-hook-id="712C0647-59BF-450F-82DC-7832E6C8C072" id="Stroke-15" stroke="#3D4043" stroke-linecap="round" stroke-linejoin="round"></path>
                    </g>
                </g>
            </g>
            <g jetway-hook-id="D784D036-D5D7-434F-8832-1D6F8A735410" id="Group-16" transform="translate(91.022924, 91.347970) scale(-1, 1) translate(-91.022924, -91.347970) translate(77.736354, 78.061400)" fill="#4285F4" fill-rule="nonzero" stroke="#3C4043">
                <circle jetway-hook-id="7911B051-FD3D-40FC-97EA-4D4F7D581F90" id="Oval" cx="13.2865702" cy="13.2865702" r="13.2865702"></circle>
            </g>
            <g jetway-hook-id="EEF882D4-FDC5-4C9D-8C65-B020E4007606" id="Group-24" transform="translate(91.849648, 73.564864) scale(-1, 1) translate(-91.849648, -73.564864) translate(78.563078, 46.347970)">
                <g jetway-hook-id="117CFF24-B6CB-4829-905B-315BCE877F91" id="Group-22-Copy-3" transform="translate(13.286570, 13.286570) scale(-1, 1) translate(-13.286570, -13.286570) " fill="#EA4335" stroke="#3C4043">
                    <circle jetway-hook-id="A193307B-77C1-4F34-BDC1-109D2253E748" id="Oval" cx="13.2865702" cy="13.2865702" r="13.2865702"></circle>
                </g>
                <g jetway-hook-id="A25F2BF4-D926-45B3-9EB4-DB91D3027BDD" id="Group-19" transform="translate(14.085925, 44.823775) scale(-1, 1) translate(-14.085925, -44.823775) translate(6.637514, 35.213762)">
                    <path d="M14.0037266,9.45234674 C14.2270003,10.105804 14.8968214,11.1948995 14.8968214,12.1145802 C14.8968214,13.9297393 13.9590719,14.7526115 13.0880812,14.8736221 C12.7310665,14.9220263 12.0612454,14.7042072 11.9717127,13.9297393 C11.8826264,13.1552714 11.793317,5.58000722 11.793317,5.58000722 L13.4455424,5.58000722 C13.4901971,5.60420934 13.6462654,8.31460498 14.0037266,9.45234674" jetway-hook-id="6C2329DD-EA8A-4C2F-B047-A89B4CF5DF97" id="Fill-1" fill="#3C4043"></path>
                    <path d="M14.0037266,9.45234674 C14.2270003,10.105804 14.8968214,11.1948995 14.8968214,12.1145802 C14.8968214,13.9297393 13.9590719,14.7526115 13.0880812,14.8736221 C12.7310665,14.9220263 12.0612454,14.7042072 11.9717127,13.9297393 C11.8826264,13.1552714 11.793317,5.58000722 11.793317,5.58000722 L13.4455424,5.58000722 C13.4901971,5.60420934 13.6462654,8.31460498 14.0037266,9.45234674 Z" jetway-hook-id="80EA2488-97A8-4780-BED6-EC16309BED07" id="Stroke-3" stroke="#3D4043" stroke-linecap="round" stroke-linejoin="round"></path>
                    <path d="M5.84333086,19.2200249 C5.84333086,19.2200249 7.0469123,16.7431605 7.63690321,14.3606528 C7.63690321,14.3606528 10.1620643,15.5872904 11.9554006,14.9975608 C11.9554006,14.9975608 12.7341886,13.9124583 12.9940206,10.4920265 C13.1353825,8.77001601 12.8993861,6.1516165 12.4273934,4.54755194 C11.9082014,2.73118472 10.1382287,1.50454711 7.2354734,1.95274162 C3.29433414,2.54247124 1.47739815,4.71267624 2.20898687,8.46335661 C3.05833778,12.9217125 2.61018069,12.9217125 1.24140179,15.7995931 C1.26500142,15.7995931 2.23235051,18.9133655 5.84333086,19.2200249" jetway-hook-id="C383E975-BD4E-451E-A9F2-D43AB6B08B75" id="Fill-5" fill="#F3D4BD"></path>
                    <path d="M5.84333086,19.2200249 C5.84333086,19.2200249 7.0469123,16.7431605 7.63690321,14.3606528 C7.63690321,14.3606528 10.1620643,15.5872904 11.9554006,14.9975608 C11.9554006,14.9975608 12.7341886,13.9124583 12.9940206,10.4920265 C13.1353825,8.77001601 12.8993861,6.1516165 12.4273934,4.54755194 C11.9082014,2.73118472 10.1382287,1.50454711 7.2354734,1.95274162 C3.29433414,2.54247124 1.47739815,4.71267624 2.20898687,8.46335661 C3.05833778,12.9217125 2.61018069,12.9217125 1.24140179,15.7995931 C1.26500142,15.7995931 2.23235051,18.9133655 5.84333086,19.2200249 Z" jetway-hook-id="1CACCF1D-607A-4E11-8BB6-41141BB20C94" id="Stroke-7" stroke="#3D4043" stroke-linecap="round" stroke-linejoin="round"></path>
                    <path d="M4.96560714,8.49874922 C4.96560714,8.49874922 4.6964454,7.98800135 4.31961897,8.06864575 C3.94279253,8.14929015 3.6915749,8.71380096 3.72764258,9.33207469 C3.74540725,9.95034843 4.14017781,10.8105554 4.58878071,11.1600144" jetway-hook-id="88D1CA99-60BB-43E5-975A-ACAEC4B8A61A" id="Stroke-9" stroke="#3C4043" stroke-linecap="round" stroke-linejoin="round"></path>
                    <path d="M7.15675608,15.50002 C7.15675608,15.50002 5.78822279,14.8552192 5.58630804,12.400016 C5.58630804,12.400016 6.2593572,13.8632179 7.44841072,14.4088186 C7.44841072,14.4088186 7.3811058,14.681619 7.33623586,14.9048193 C7.24649597,15.1776196 7.15675608,15.50002 7.15675608,15.50002" jetway-hook-id="74820485-02D6-4648-B5CF-F962946D3517" id="Fill-11" fill="#3C4043"></path>
                    <path d="M7.15675608,15.50002 C7.15675608,15.50002 5.78822279,14.8552192 5.58630804,12.400016 C5.58630804,12.400016 6.2593572,13.8632179 7.44841072,14.4088186 C7.44841072,14.4088186 7.3811058,14.681619 7.33623586,14.9048193 C7.24649597,15.1776196 7.15675608,15.50002 7.15675608,15.50002 Z" jetway-hook-id="BE512295-34E7-46BE-82A9-5CE318C5F258" id="Stroke-13" stroke="#3C4043" stroke-linecap="round" stroke-linejoin="round"></path>
                    <path d="M7.25152499,8.36909637 C7.25152499,8.36909637 6.60932799,8.32154468 6.17355145,8.10756211 C6.17355145,8.10756211 5.96713099,8.84461321 6.31116509,9.60544015 C6.72400602,10.532698 8.67353263,14.3606085 6.15061584,15.5731765 C6.15061584,15.5731765 3.87999073,16.8570719 2.71027477,14.8361254 C2.71027477,14.8361254 2.54972552,15.7396074 2.87082402,16.1200208 C2.87082402,16.1200208 1.58643002,15.8109349 0.852490585,15.192763 C0.439649656,14.8361254 -0.340160988,14.1941776 0.16442237,12.5298687 C0.370842835,11.8165935 1.2194603,9.32013005 1.2194603,9.32013005 C1.2194603,9.32013005 0.577263299,9.58166431 0.32497162,9.60544015 C0.32497162,9.60544015 0.210293585,8.58307895 0.210293585,8.22644132 C0.233229192,6.94254585 0.554327692,4.99292681 2.09101337,3.47127293 C2.8249528,2.75799767 4.04053998,2.09227409 5.14144913,1.9258432 C5.14144913,1.9258432 5.92125977,0.760826943 7.75610835,0.618171891 C9.38453645,0.499292681 10.1872827,0 10.1872827,0 C10.1872827,0 10.6459948,0.832154468 10.6230592,1.30767131 C10.6230592,1.30767131 14.8890822,1.59298141 14.201014,5.99151217 C14.1092715,6.56213238 13.9257867,7.32295932 13.6964306,7.9886829 C13.6964306,7.9886829 12.3661654,7.67959695 11.5863547,7.32295932 C10.5542524,6.84744248 8.94875992,5.92018465 8.12307806,4.56496166 C8.14601367,4.66006502 8.32949852,7.37051101 7.25152499,8.36909637" jetway-hook-id="D1C6D638-EFBD-47A8-AFA3-F9E1D1013349" id="Fill-15" fill="#3C4043"></path>
                    <path d="M7.25152499,8.36909637 C7.25152499,8.36909637 6.60932799,8.32154468 6.17355145,8.10756211 C6.17355145,8.10756211 5.96713099,8.84461321 6.31116509,9.60544015 C6.72400602,10.532698 8.67353263,14.3606085 6.15061584,15.5731765 C6.15061584,15.5731765 3.87999073,16.8570719 2.71027477,14.8361254 C2.71027477,14.8361254 2.54972552,15.7396074 2.87082402,16.1200208 C2.87082402,16.1200208 1.58643002,15.8109349 0.852490585,15.192763 C0.439649656,14.8361254 -0.340160988,14.1941776 0.16442237,12.5298687 C0.370842835,11.8165935 1.2194603,9.32013005 1.2194603,9.32013005 C1.2194603,9.32013005 0.577263299,9.58166431 0.32497162,9.60544015 C0.32497162,9.60544015 0.210293585,8.58307895 0.210293585,8.22644132 C0.233229192,6.94254585 0.554327692,4.99292681 2.09101337,3.47127293 C2.8249528,2.75799767 4.04053998,2.09227409 5.14144913,1.9258432 C5.14144913,1.9258432 5.92125977,0.760826943 7.75610835,0.618171891 C9.38453645,0.499292681 10.1872827,0 10.1872827,0 C10.1872827,0 10.6459948,0.832154468 10.6230592,1.30767131 C10.6230592,1.30767131 14.8890822,1.59298141 14.201014,5.99151217 C14.1092715,6.56213238 13.9257867,7.32295932 13.6964306,7.9886829 C13.6964306,7.9886829 12.3661654,7.67959695 11.5863547,7.32295932 C10.5542524,6.84744248 8.94875992,5.92018465 8.12307806,4.56496166 C8.14601367,4.66006502 8.32949852,7.37051101 7.25152499,8.36909637 Z" jetway-hook-id="36B5846B-710B-4BEE-8259-5AC94AFC1C94" id="Stroke-17" stroke="#3D4043" stroke-linecap="round" stroke-linejoin="round"></path>
                </g>
                <g jetway-hook-id="924CDD33-69DC-475A-8628-3F6FE282C4AA" id="Group-25" transform="translate(13.624316, 14.000000) scale(-1, 1) translate(-13.624316, -14.000000) translate(6.981031, 4.801605)">
                    <g jetway-hook-id="B0D9FD19-943F-4802-B0F8-8B1F563B37F7" id="Group-23">
                        <path d="M6.0584416,18.3967895 C6.0584416,18.3967895 7.11953512,16.0797267 7.63967901,13.8507123 C7.63967901,13.8507123 9.86589484,14.9984307 11.4471323,14.4467491 C11.4471323,14.4467491 12.1337222,13.4316549 12.3625855,10.2319015 C12.48742,8.62099114 12.2793624,6.17152473 11.8632474,4.67095072 C11.4055208,2.97177131 9.84508908,1.82405286 7.28598117,2.24355156 C3.81142003,2.79523319 2.20937686,4.82542157 2.85435527,8.33389603 C3.60336246,12.5048298 3.20805311,12.5048298 2.0013193,15.1970361 C2.02212506,15.1970361 2.85435527,18.1099151 6.0584416,18.3967895" jetway-hook-id="BA5B5CD3-2B46-4536-98EB-8D28DFB1D22C" id="Fill-1" fill="#DD8861" fill-rule="nonzero"></path>
                        <path d="M6.0584416,18.3967895 C6.0584416,18.3967895 7.11953512,16.0797267 7.63967901,13.8507123 C7.63967901,13.8507123 9.86589484,14.9984307 11.4471323,14.4467491 C11.4471323,14.4467491 12.1337222,13.4316549 12.3625855,10.2319015 C12.48742,8.62099114 12.2793624,6.17152473 11.8632474,4.67095072 C11.4055208,2.97177131 9.84508908,1.82405286 7.28598117,2.24355156 C3.81142003,2.79523319 2.20937686,4.82542157 2.85435527,8.33389603 C3.60336246,12.5048298 3.20805311,12.5048298 2.0013193,15.1970361 C2.02212506,15.1970361 2.85435527,18.1099151 6.0584416,18.3967895 Z" jetway-hook-id="E902F32B-3106-495A-B3F6-4EB13E5262E8" id="Stroke-3" stroke="#3D4043" stroke-linecap="round" stroke-linejoin="round"></path>
                        <path d="M5.72563274,8.37794229 C5.72563274,8.37794229 5.41354641,7.95888492 4.97641749,8.02486604 C4.53970468,8.09106784 4.24821605,8.5544804 4.29003561,9.06224818 C4.31063331,9.56957459 4.76835993,10.2759478 5.28850382,10.5626015" jetway-hook-id="487CAC76-FE9C-4BA4-9CA3-90371878E548" id="Stroke-5" stroke="#3C4043" stroke-linecap="round" stroke-linejoin="round"></path>
                        <path d="M7.39009317,14.8218484 C7.39009317,14.8218484 6.12073403,14.2480996 5.93369029,12.0634403 C5.93369029,12.0634403 6.55786296,13.3654089 7.66056799,13.8508888 C7.66056799,13.8508888 7.59815072,14.0936287 7.55653922,14.2922341 C7.47310813,14.5129067 7.39009317,14.8218484 7.39009317,14.8218484" jetway-hook-id="2D96F2E9-CF50-46F8-A571-67238C76E036" id="Fill-7" fill="#3C4043" fill-rule="nonzero"></path>
                        <path d="M7.39009317,14.8218484 C7.39009317,14.8218484 6.12073403,14.2480996 5.93369029,12.0634403 C5.93369029,12.0634403 6.55786296,13.3654089 7.66056799,13.8508888 C7.66056799,13.8508888 7.59815072,14.0936287 7.55653922,14.2922341 C7.47310813,14.5129067 7.39009317,14.8218484 7.39009317,14.8218484 Z" jetway-hook-id="91A1A268-DBA7-4533-B7A4-2448513A042E" id="Stroke-9" stroke="#3C4043" stroke-linecap="round" stroke-linejoin="round"></path>
                        <path d="M4.66441438,9.98880849 C4.66441438,9.98880849 4.53957985,11.7764776 2.72947913,11.9527951 C2.43819855,11.9748624 1.77262244,11.7983242 2.10530647,10.8714991 C2.29276633,10.3862399 2.12611222,9.96674122 1.66859366,9.90076011 C1.16904748,9.81227037 0.295205749,9.21645422 0.794543878,7.91470626 C0.794543878,7.91470626 -0.349772668,7.38487123 0.108162008,6.12703713 C0.108162008,6.12703713 0.628305893,6.03898873 1.31468777,5.17814473 C1.77262244,4.58232858 2.16772374,3.41276353 3.04156545,1.86805499 C4.10265899,-0.0295091301 6.72418416,-0.515209632 8.32643538,0.566307024 C8.32643538,0.566307024 10.6150685,-0.824151342 12.3835577,1.27223883 C13.9439893,3.14795636 13.2157878,5.53144164 12.1960979,6.43597883 C12.1960979,6.43597883 11.9674426,4.58232858 11.5927309,3.96444515 C11.5927309,3.96444515 9.99089581,3.34656174 8.34703308,4.20740575 C8.34703308,4.20740575 9.01281725,5.77396088 6.87003251,7.53934208 C6.87003251,7.53934208 5.87114819,8.90773318 6.41209783,9.59159773 C6.41209783,9.59159773 5.66309064,9.21645422 5.74631366,8.37789815 C5.74631366,8.37789815 5.53825611,8.02504258 4.99751452,8.02504258 C4.68542819,8.02504258 4.31071654,8.40018609 4.31071654,9.06220403 C4.28991078,9.43712687 4.66441438,9.98880849 4.66441438,9.98880849" jetway-hook-id="09F262AD-4F3D-45CE-9C45-9CADEF3BF888" id="Fill-11" fill="#3C4043" fill-rule="nonzero"></path>
                        <path d="M4.66441438,9.98880849 C4.66441438,9.98880849 4.53957985,11.7764776 2.72947913,11.9527951 C2.43819855,11.9748624 1.77262244,11.7983242 2.10530647,10.8714991 C2.29276633,10.3862399 2.12611222,9.96674122 1.66859366,9.90076011 C1.16904748,9.81227037 0.295205749,9.21645422 0.794543878,7.91470626 C0.794543878,7.91470626 -0.349772668,7.38487123 0.108162008,6.12703713 C0.108162008,6.12703713 0.628305893,6.03898873 1.31468777,5.17814473 C1.77262244,4.58232858 2.16772374,3.41276353 3.04156545,1.86805499 C4.10265899,-0.0295091301 6.72418416,-0.515209632 8.32643538,0.566307024 C8.32643538,0.566307024 10.6150685,-0.824151342 12.3835577,1.27223883 C13.9439893,3.14795636 13.2157878,5.53144164 12.1960979,6.43597883 C12.1960979,6.43597883 11.9674426,4.58232858 11.5927309,3.96444515 C11.5927309,3.96444515 9.99089581,3.34656174 8.34703308,4.20740575 C8.34703308,4.20740575 9.01281725,5.77396088 6.87003251,7.53934208 C6.87003251,7.53934208 5.87114819,8.90773318 6.41209783,9.59159773 C6.41209783,9.59159773 5.66309064,9.21645422 5.74631366,8.37789815 C5.74631366,8.37789815 5.53825611,8.02504258 4.99751452,8.02504258 C4.68542819,8.02504258 4.31071654,8.40018609 4.31071654,9.06220403 C4.28991078,9.43712687 4.66441438,9.98880849 4.66441438,9.98880849 Z" jetway-hook-id="A5844B38-3E7A-447E-8070-F6ADEC388B00" id="Stroke-13" stroke="#3C4043" stroke-linecap="round" stroke-linejoin="round"></path>
                    </g>
                </g>
            </g>
            <g jetway-hook-id="2CE8840B-3B2C-4A69-A5D9-40C60D87E756" id="Group-16" transform="translate(236.803456, 0.000000)">
                <circle jetway-hook-id="CD624D57-7A82-47BF-94AE-08670FA92981" id="Oval" stroke="#3C4043" fill="#EA4335" fill-rule="nonzero" cx="15.5" cy="15.5" r="15.5"></circle>
                <g jetway-hook-id="6B29E902-1DF9-4A2B-95E2-8EA383839974" id="Group-25" transform="translate(16.096154, 15.500000) scale(-1, 1) translate(-16.096154, -15.500000) translate(8.346154, 4.769231)">
                    <g jetway-hook-id="92205371-25C3-4661-8380-A4F94B4C74C8" id="Group-23">
                        <path d="M7.06772653,21.4615385 C7.06772653,21.4615385 8.30558923,18.7584726 8.91238467,16.1581233 C8.91238467,16.1581233 11.5094692,17.4970419 13.3541273,16.8534549 C13.3541273,16.8534549 14.1550973,15.6692545 14.4220873,11.9364494 C14.5677182,10.0571751 14.325,7.19964836 13.8395637,5.44909145 C13.3055837,3.46684317 11.4851973,2.12792458 8.49976377,2.6173082 C4.44637024,3.26089531 2.57744029,5.62929583 3.32986662,9.72225235 C4.20365206,14.5880283 3.74248752,14.5880283 2.3347221,17.7287333 C2.35899392,17.7287333 3.32986662,21.1268732 7.06772653,21.4615385" jetway-hook-id="BEC0A629-C178-43C6-9324-B4BE97CBBA8B" id="Fill-1" fill="#DD8861" fill-rule="nonzero"></path>
                        <path d="M7.06772653,21.4615385 C7.06772653,21.4615385 8.30558923,18.7584726 8.91238467,16.1581233 C8.91238467,16.1581233 11.5094692,17.4970419 13.3541273,16.8534549 C13.3541273,16.8534549 14.1550973,15.6692545 14.4220873,11.9364494 C14.5677182,10.0571751 14.325,7.19964836 13.8395637,5.44909145 C13.3055837,3.46684317 11.4851973,2.12792458 8.49976377,2.6173082 C4.44637024,3.26089531 2.57744029,5.62929583 3.32986662,9.72225235 C4.20365206,14.5880283 3.74248752,14.5880283 2.3347221,17.7287333 C2.35899392,17.7287333 3.32986662,21.1268732 7.06772653,21.4615385 Z" jetway-hook-id="35396C80-E93E-48E9-9956-B5B585BFB2AE" id="Stroke-3" stroke="#3D4043" stroke-linecap="round" stroke-linejoin="round"></path>
                        <path d="M6.67947454,9.77363634 C6.67947454,9.77363634 6.31539727,9.28476758 5.80544639,9.36174059 C5.29598093,9.43897104 4.95593278,9.97958421 5.00471912,10.5719418 C5.02874822,11.1637845 5.56272821,11.9878334 6.16952365,12.3222413" jetway-hook-id="FC39E68B-59E6-46A5-8BE6-92D0054F0EBE" id="Stroke-5" stroke="#3C4043" stroke-linecap="round" stroke-linejoin="round"></path>
                        <path d="M8.62121995,17.2910425 C8.62121995,17.2910425 7.14039635,16.621712 6.92219272,14.0731071 C6.92219272,14.0731071 7.65034725,15.5919726 8.93675358,16.1583292 C8.93675358,16.1583292 8.86393812,16.4415076 8.81539449,16.6731989 C8.71806449,16.9306338 8.62121995,17.2910425 8.62121995,17.2910425" jetway-hook-id="333E245D-E2B3-466B-89A9-ABCA498F6FAC" id="Fill-7" fill="#3C4043" fill-rule="nonzero"></path>
                        <path d="M8.62121995,17.2910425 C8.62121995,17.2910425 7.14039635,16.621712 6.92219272,14.0731071 C6.92219272,14.0731071 7.65034725,15.5919726 8.93675358,16.1583292 C8.93675358,16.1583292 8.86393812,16.4415076 8.81539449,16.6731989 C8.71806449,16.9306338 8.62121995,17.2910425 8.62121995,17.2910425 Z" jetway-hook-id="F91032C8-AF61-45CB-8424-A7E6C49923D3" id="Stroke-9" stroke="#3C4043" stroke-linecap="round" stroke-linejoin="round"></path>
                        <path d="M5.44146621,11.6528592 C5.44146621,11.6528592 5.2958353,13.7383388 3.18418718,13.9440293 C2.84438173,13.9697728 2.06792629,13.7638248 2.45603265,12.6825985 C2.67472173,12.1164993 2.48030447,11.6271157 1.9465672,11.5501427 C1.36380086,11.4469113 0.344384521,10.7518372 0.926908142,9.23322912 C0.926908142,9.23322912 -0.408041824,8.61512808 0.12618088,7.14774949 C0.12618088,7.14774949 0.73297632,7.04503298 1.53370359,6.04077967 C2.06792629,5.34570561 2.52884811,3.98130096 3.54826444,2.17925709 C4.78612714,-0.0344251006 7.84437615,-0.601039183 9.71354882,0.660648966 C9.71354882,0.660648966 12.3834487,-0.961447958 14.4465532,1.48418302 C16.2669395,3.67237916 15.4174259,6.45293285 14.2278642,7.50815826 C14.2278642,7.50815826 13.961117,5.34570561 13.5239814,4.62488806 C13.5239814,4.62488806 11.6552942,3.90407051 9.73757792,4.90832382 C9.73757792,4.90832382 10.5142761,6.73585374 8.01452159,8.79533246 C8.01452159,8.79533246 6.84923163,10.3916859 7.48029889,11.1894765 C7.48029889,11.1894765 6.60651346,10.7518372 6.70360072,9.77358485 C6.70360072,9.77358485 6.46088255,9.36194654 5.83005801,9.36194654 C5.46598075,9.36194654 5.02884531,9.79958577 5.02884531,10.5718903 C5.00457349,11.0092721 5.44146621,11.6528592 5.44146621,11.6528592" jetway-hook-id="177AB9B9-E581-4D11-BAF4-7A28B78C5D2A" id="Fill-11" fill="#3C4043" fill-rule="nonzero"></path>
                        <path d="M5.44146621,11.6528592 C5.44146621,11.6528592 5.2958353,13.7383388 3.18418718,13.9440293 C2.84438173,13.9697728 2.06792629,13.7638248 2.45603265,12.6825985 C2.67472173,12.1164993 2.48030447,11.6271157 1.9465672,11.5501427 C1.36380086,11.4469113 0.344384521,10.7518372 0.926908142,9.23322912 C0.926908142,9.23322912 -0.408041824,8.61512808 0.12618088,7.14774949 C0.12618088,7.14774949 0.73297632,7.04503298 1.53370359,6.04077967 C2.06792629,5.34570561 2.52884811,3.98130096 3.54826444,2.17925709 C4.78612714,-0.0344251006 7.84437615,-0.601039183 9.71354882,0.660648966 C9.71354882,0.660648966 12.3834487,-0.961447958 14.4465532,1.48418302 C16.2669395,3.67237916 15.4174259,6.45293285 14.2278642,7.50815826 C14.2278642,7.50815826 13.961117,5.34570561 13.5239814,4.62488806 C13.5239814,4.62488806 11.6552942,3.90407051 9.73757792,4.90832382 C9.73757792,4.90832382 10.5142761,6.73585374 8.01452159,8.79533246 C8.01452159,8.79533246 6.84923163,10.3916859 7.48029889,11.1894765 C7.48029889,11.1894765 6.60651346,10.7518372 6.70360072,9.77358485 C6.70360072,9.77358485 6.46088255,9.36194654 5.83005801,9.36194654 C5.46598075,9.36194654 5.02884531,9.79958577 5.02884531,10.5718903 C5.00457349,11.0092721 5.44146621,11.6528592 5.44146621,11.6528592 Z" jetway-hook-id="95088A7B-9F3A-4DEC-8FE3-0D3BB61DC53F" id="Stroke-13" stroke="#3C4043" stroke-linecap="round" stroke-linejoin="round"></path>
                    </g>
                </g>
            </g>
            <g jetway-hook-id="C09EC5AB-BFDA-493A-8FB3-8FD5D8DD0559" id="searchbar" transform="translate(64.616116, 4.558365)" stroke="#3C4043">
                <rect jetway-hook-id="A029192A-CDC2-41B9-BA96-928FE2C32A0A" id="Rectangle" x="0.5" y="0.5" width="151.232881" height="23.5120741" rx="2"></rect>
                <line x1="38.7032749" y1="12.256037" x2="89.0175323" y2="12.256037" jetway-hook-id="7F5B0E52-D39A-4722-9394-E4C8FA898D26" id="Line-2" stroke-linecap="round" stroke-linejoin="round"></line>
                <circle jetway-hook-id="1A35440A-DFC8-4F68-BF9B-95FB9903BC5D" id="Oval" cx="16.3919752" cy="11.2315386" r="4.78099278"></circle>
                <line x1="20.1484696" y1="14.9880329" x2="23.0461888" y2="17.8857521" jetway-hook-id="7AAE39FB-35A2-410F-9531-B08702EB48B0" id="Line-6" stroke-linecap="square"></line>
            </g>
            <line x1="5.30819018" y1="66.5774695" x2="34.9476212" y2="66.5774695" jetway-hook-id="6EA1EBB1-2C97-4A59-B805-0F5B67216842" id="Line-2" stroke="#9AA0A6" stroke-linecap="round"></line>
            <line x1="5.30819018" y1="78.4332419" x2="34.9476212" y2="78.4332419" jetway-hook-id="082645CF-4C1A-42D7-A0EA-DD1AFB6BC93E" id="Line-2" stroke="#9AA0A6" stroke-linecap="round"></line>
            <line x1="5.30819018" y1="90.2890143" x2="34.9476212" y2="90.2890143" jetway-hook-id="E5E4C43D-B275-4049-B694-B1362E2F4B83" id="Line-2" stroke="#9AA0A6" stroke-linecap="round"></line>
            <line x1="5.30819018" y1="101.721697" x2="34.9476212" y2="101.721697" jetway-hook-id="92D3E0DE-C91D-425B-8A8A-8A8579355608" id="Line-2" stroke="#9AA0A6" stroke-linecap="round"></line>
            <line x1="5.30819018" y1="113.577469" x2="34.9476212" y2="113.577469" jetway-hook-id="5BE5FDBF-88B8-4836-BB39-F9EC24C4849D" id="Line-2" stroke="#9AA0A6" stroke-linecap="round"></line>
            <line x1="5.30819018" y1="125.433242" x2="34.9476212" y2="125.433242" jetway-hook-id="CD18D8D3-E265-4221-B17C-86D8A3603EF9" id="Line-2" stroke="#9AA0A6" stroke-linecap="round"></line>
            <line x1="5.30819018" y1="137.289014" x2="34.9476212" y2="137.289014" jetway-hook-id="097155DC-5713-4F81-BA13-657E1A5B88CD" id="Line-2" stroke="#9AA0A6" stroke-linecap="round"></line>
            <g jetway-hook-id="4D5588BD-CDB1-450F-8D12-30ACCF62B9E0" id="Logos/groups" transform="translate(2.588643, 1.317838)">
                <path d="M0.318206787,30.9445496 L7.39754105,23.6881218 C13.8194593,23.6881218 18.2704035,23.6881218 20.7503738,23.6881218 C20.7503738,17.9580643 17.6362801,11.3129349 10.3751869,11.3129349 C3.11409378,11.3129349 0,17.8890896 0,23.6881218 C0,27.5541433 0.106068929,29.9729525 0.318206787,30.9445496 Z" jetway-hook-id="28AD6612-5C95-490D-AAAB-6B7828353DEC" id="Oval" stroke="#3C4043" fill="#8AB4F8"></path>
                <path d="M22.3751869,12.3345757 C25.4755217,12.3345757 27.7807911,13.6090396 29.3758164,15.5115342 C31.2459268,17.7421412 32.1491011,20.8173613 32.2423007,23.7097626 L32.2423007,23.7097626 L12.5080731,23.7097626 C12.6012728,20.8173613 13.5044471,17.7421412 15.3745574,15.5115342 C16.9695827,13.6090396 19.2748522,12.3345757 22.3751869,12.3345757 Z" jetway-hook-id="8D30F897-DEE7-49D8-BB41-633655A34147" id="Oval" stroke="#3C4043" fill="#8AB4F8"></path>
                <path d="M20.7503738,23.6881218 C20.7503738,17.9580643 17.6362801,11.3129349 10.3751869,11.3129349" jetway-hook-id="87E3CF7D-FE22-41B7-9204-AD32A8B965FC" id="Oval" stroke="#3C4043"></path>
                <circle jetway-hook-id="45CDB150-6205-4F52-B55D-B59E4EE02DA3" id="Oval" stroke="#3C4043" fill="#8AB4F8" cx="22.6616707" cy="5.13859558" r="4.63859558"></circle>
                <circle jetway-hook-id="DA2B5D40-F0DA-47A0-8825-FEB52311CEAF" id="Oval" stroke="#3C4043" fill="#8AB4F8" cx="9.66167068" cy="5.13859558" r="4.63859558"></circle>
                <path d="M16.9766865,15.2479739 C14.2850428,17.485939 13.7230034,21.0071874 13.5497437,22.7028556 C13.8132105,22.7028556 15.8718386,22.7028556 19.7256279,22.7028556 C19.4082991,19.286373 18.4919853,16.8014124 16.9766865,15.2479739 Z" jetway-hook-id="66920C79-E399-43F0-AFB5-113252045268" id="Path-24" stroke="#669DF6" fill="#669DF6"></path>
            </g>
            <path d="M0,49.0053967 L37.0435902,49.0053967 C40.1904025,49.0053967 42.7413979,51.5563921 42.7413979,54.7032044 C42.7413979,57.8500167 40.1904025,60.4010121 37.0435902,60.4010121 L0,60.4010121 L0,60.4010121 L0,49.0053967 Z" jetway-hook-id="5DB3B708-B314-48D2-8488-DBDCBE1CC370" id="Rectangle" fill="#8AB4F8"></path>
            <line x1="4.30819018" y1="54.7216971" x2="33.9476212" y2="54.7216971" jetway-hook-id="31F62991-7E49-4CED-84CF-B9F5854FB676" id="Line-2" stroke="#FFFFFF" stroke-linecap="round"></line>
        </g>
        <g jetway-hook-id="CC211648-1D06-4CF6-BA87-71E2581D8D2C" id="pens" transform="translate(337.000000, 137.760000)">
            <polygon jetway-hook-id="37096DA7-F47E-473D-A741-958C2C16FEDA" id="Path" stroke="#3C4043" stroke-linecap="round" stroke-linejoin="round" points="29.5719844 7.10542736e-15 27.0038911 7.10542736e-15 27.0038911 7.06225681 29.5719844 7.06225681"></polygon>
            <polygon jetway-hook-id="5F7DFA14-16E5-4C12-9AA4-840AC5315248" id="Path" stroke="#3C4043" fill="#FFFFFF" fill-rule="nonzero" stroke-linecap="round" stroke-linejoin="round" points="31.4396887 7.06206226 25.1361868 7.06206226 25.1361868 41.1478599 31.4396887 41.1478599"></polygon>
            <polygon jetway-hook-id="7D100108-CAEF-413E-BCC5-1EFD32AF8543" id="Path" stroke="#3C4043" fill="#FCC934" stroke-linecap="round" stroke-linejoin="round" points="8.19066148 19.1750973 2.20233463 21.1439689 11.7023346 50.0291829 17.6906615 48.0603113"></polygon>
            <path d="M8.00623669,19.0583469 L2.19314857,20.9471337 L1.84832041,9.93011346 C1.85195748,9.8753751 1.91977684,9.85333925 1.95489369,9.8954857 L8.00623669,19.0583469 Z" jetway-hook-id="5D6FABD9-834F-4905-8951-BECD9D92FD90" id="Path" stroke="#3C4043" fill="#FFFFFF" fill-rule="nonzero" stroke-linecap="round" stroke-linejoin="round"></path>
            <path d="M4.52102043,13.9032173 L1.98263862,14.7279876 L1.82918799,9.90419599 C1.83258052,9.88167105 1.86164596,9.87222712 1.87763039,9.8884561 L4.52102043,13.9032173 Z" jetway-hook-id="C4A4D077-C0A9-4526-A66B-67A218FFCAA1" id="Path" stroke="#3C4043" fill="#3C4043" fill-rule="nonzero" stroke-linecap="round" stroke-linejoin="round"></path>
            <polygon jetway-hook-id="858E2C8A-2022-4280-B289-82BCE634F6B9" id="Path" stroke="#3C4043" fill="#FFFFFF" stroke-linecap="round" stroke-linejoin="round" points="49.2178988 12.9007782 43.1867704 11.0731518 32.7315175 45.57393 38.7645914 47.4007782"></polygon>
            <polygon jetway-hook-id="1F27735A-850B-451C-838E-CA4BF0439560" id="Path" stroke="#3C4043" fill="#3C4043" fill-rule="nonzero" stroke-linecap="round" stroke-linejoin="round" points="49.2178988 12.9007782 43.1848249 11.0731518 38.766537 25.651751 44.7996109 27.4805447"></polygon>
            <polyline jetway-hook-id="C19D935A-6312-4F98-8D6C-D342AC983F8D" id="Path" stroke="#3C4043" stroke-linecap="round" stroke-linejoin="round" points="47.6070039 34.3385214 52.1011673 19.5330739 47.6264591 18.1712062"></polyline>
            <polygon jetway-hook-id="02BE17E0-B5E9-41CF-801D-24DA452E409D" id="Path" fill="#5BB974" fill-rule="nonzero" points="8.33463035 90 40.0466926 90 47.381323 41.1478599 1 41.1478599"></polygon>
        </g>
        <g jetway-hook-id="988F98BC-83BB-4478-861B-F07C42BDAD02" id="picture-frame" transform="translate(363.620043, 59.252976) scale(-1, 1) translate(-363.620043, -59.252976) translate(335.240085, 17.354965)">
            <path d="M28.7599146,4.18319796 L44.6733802,22.7640342 L12.846449,22.7640342 L28.7599146,4.18319796 Z" jetway-hook-id="E968FE5A-5F7F-445B-91A4-DA748D97800B" id="Triangle" stroke="#3C4043"></path>
            <g jetway-hook-id="ACD6943F-50A0-4745-B5FD-16AC021E3A54" id="pushpin" transform="translate(26.394881, 0.000000)">
                <path d="M2.41,4.82 C3.741,4.82 4.82,3.74 4.82,2.41 C4.82,1.08 3.741,0 2.41,0 C1.079,0 0,1.08 0,2.41 C0,3.74 1.079,4.82 2.41,4.82" jetway-hook-id="D6421B1E-0473-45C0-8B5B-1C22DAB72C29" id="Fill-3" fill="#FFFFFF"></path>
                <path d="M2.41,4.82 C3.741,4.82 4.82,3.74 4.82,2.41 C4.82,1.08 3.741,0 2.41,0 C1.079,0 0,1.08 0,2.41 C0,3.74 1.079,4.82 2.41,4.82 Z" jetway-hook-id="F1475AB9-A209-4AC9-937C-0D24671AB2F2" id="Stroke-5" stroke="#3C4043"></path>
            </g>
            <rect jetway-hook-id="F4A94195-F3B9-4374-90AA-18B38AA81F44" id="Rectangle" stroke="#3C4043" fill="#FFFFFF" x="1.25991463" y="14.9375392" width="55" height="67.4298947"></rect>
            <rect jetway-hook-id="62A2FC72-136F-41E9-B1D5-E44388D070CE" id="Rectangle" stroke="#3C4043" fill="#D2E3FC" x="9.61937585" y="23.7640342" width="38.2810776" height="49.963337"></rect>
            <line x1="9.57693886" y1="23.6799736" x2="1.90837693" y2="15.4920177" jetway-hook-id="F0884783-6A78-404C-84B5-DA451A1487E6" id="Line-7" stroke="#3C4043" stroke-linecap="square"></line>
            <line x1="55.5769389" y1="23.6799736" x2="47.9083769" y2="15.4920177" jetway-hook-id="D4BD3EB8-6896-426D-A468-D85764483B69" id="Line-7" stroke="#3C4043" stroke-linecap="square" transform="translate(51.759915, 19.645035) scale(-1, 1) translate(-51.759915, -19.645035) "></line>
            <line x1="9.57693886" y1="81.6799736" x2="1.90837693" y2="73.4920177" jetway-hook-id="7ECDB8FD-92E7-43A0-B44C-B81C83BF5A69" id="Line-7" stroke="#3C4043" stroke-linecap="square" transform="translate(5.759915, 77.645035) scale(1, -1) translate(-5.759915, -77.645035) "></line>
            <line x1="55.5769389" y1="81.6799736" x2="47.9083769" y2="73.4920177" jetway-hook-id="350ABE3D-091F-4DBD-9AB1-53170276A4B1" id="Line-7" stroke="#3C4043" stroke-linecap="square" transform="translate(51.759915, 77.645035) scale(-1, -1) translate(-51.759915, -77.645035) "></line>
            <g jetway-hook-id="B91BD07E-0B49-47B6-9200-27D91983AA2A" id="dog" transform="translate(10.193009, 30.554971)">
                <path d="M27.96195,32.3644397 C30.4997697,39.6461793 30.5154022,43.2608838 29.4231605,43.2608838 C18.9814101,43.0593641 8.7855408,43.2608838 0,43.0593641 C4.22969944,37.8117632 9.14325449,29.1127023 10.4984225,23.8651014 C11.8530357,18.6175005 12.6989756,8.29426031 13.7157676,6.93964706 C14.7281219,5.58503381 18.1124362,2.53798608 19.9757228,2.53798608 C22.3720902,2.53798608 23.3650295,3.5553328 24.8855024,3.21806627 C26.4115225,2.87580732 29.9616964,1.35477966 33.0087442,0.000166414404 C36.6909402,10.2695993 29.0769265,12.6221442 27.0472255,15.3313707 C24.77345,18.3584488 25.4185832,25.0876925 27.96195,32.3644397 Z" jetway-hook-id="A9E8D0A9-DBC0-4A34-AC51-BD5CAAAF64AA" id="Fill-15" stroke="#3C4043" fill="#FFFFFF"></path>
                <path d="M33.0134593,0 L30.406855,1.13938395 C31.8302528,2.1273308 32.8620221,2.30317535 33.688547,2.31815265 C33.3901105,1.15879897 33.0134593,0 33.0134593,0" jetway-hook-id="9BFB4F0C-A6E7-46AA-AA6A-7E2C4EA6BCA8" id="Fill-21" stroke="#3C4043" fill="#3C4043"></path>
                <path d="M12.6988092,9.31127421 C11.5156028,10.3286209 8.63496943,13.8837873 8.46855503,17.0966947 C8.2977029,20.3145946 8.80582155,20.1437425 10.6691082,20.8182755 C12.5323948,21.4933633 14.7329479,22.5101553 16.2539756,22.3442956 C17.7750032,22.1778812 18.469506,20.3096022 17.6085888,18.1140415 C16.0831234,14.2166161 12.3615427,12.8664406 12.6988092,9.31127421" jetway-hook-id="99741159-499D-474A-AB24-29814FE1B00E" id="Fill-33" stroke="#3C4043" fill="#FFFFFF"></path>
                <path d="M20.2740483,6.1325372 C20.7033975,6.1325372 21.0517583,5.78528581 21.0517583,5.35482722 C21.0517583,4.92436863 20.7033975,4.57767196 20.2740483,4.57767196 C19.8446992,4.57767196 19.4963383,4.92436863 19.4963383,5.35482722 C19.4963383,5.78528581 19.8446992,6.1325372 20.2740483,6.1325372" jetway-hook-id="17A209B1-AD34-43D5-8E55-168D8C8B187E" id="Fill-37" fill="#3C4043"></path>
            </g>
        </g>
        <line x1="398.092756" y1="228.104689" x2="2" y2="228.104689" jetway-hook-id="AC06E973-3A0F-4E4A-883D-4B8E4C858D34" id="baseline" stroke="#3C4043" stroke-linecap="round" stroke-linejoin="round"></line>
    </g>
</svg>